<?xml version="1.0" encoding="UTF-8" standalone="no"?>
<svg
   xmlns:dc="http://purl.org/dc/elements/1.1/"
   xmlns:cc="http://creativecommons.org/ns#"
   xmlns:rdf="http://www.w3.org/1999/02/22-rdf-syntax-ns#"
   xmlns:svg="http://www.w3.org/2000/svg"
   xmlns="http://www.w3.org/2000/svg"
   xmlns:sodipodi="http://sodipodi.sourceforge.net/DTD/sodipodi-0.dtd"
   xmlns:inkscape="http://www.inkscape.org/namespaces/inkscape"
   sodipodi:docname="discord.svg"
   inkscape:version="1.0beta1 (32d4812, 2019-09-19)"
   id="svg8"
   version="1.1"
   viewBox="0 0 10.583333 10.583334"
   height="40"
   width="40">
  <defs
     id="defs2">
    <rect
       id="rect1581"
       height="17.43693"
       width="94.233612"
       y="35.013706"
       x="16.505098" />
    <rect
       id="rect870"
       height="13.528861"
       width="22.791864"
       y="35.955082"
       x="39.977177" />
    <rect
       id="rect835"
       height="30.238094"
       width="138.33929"
       y="56.69643"
       x="40.82143" />
  </defs>
  <sodipodi:namedview
     fit-margin-bottom="2"
     fit-margin-right="2"
     fit-margin-left="2"
     fit-margin-top="2"
     units="px"
     inkscape:window-maximized="0"
     inkscape:window-y="25"
     inkscape:window-x="0"
     inkscape:window-height="907"
     inkscape:window-width="1600"
     showgrid="false"
     inkscape:document-rotation="0"
     inkscape:current-layer="layer1"
     inkscape:document-units="mm"
     inkscape:cy="19.876949"
     inkscape:cx="30.674881"
     inkscape:zoom="10.8827"
     inkscape:pageshadow="2"
     inkscape:pageopacity="0.0"
     borderopacity="1.0"
     bordercolor="#666666"
     pagecolor="#ffffff"
     id="base" />
  <metadata
     id="metadata5">
    <rdf:RDF>
      <cc:Work
         rdf:about="">
        <dc:format>image/svg+xml</dc:format>
        <dc:type
           rdf:resource="http://purl.org/dc/dcmitype/StillImage" />
        <dc:title></dc:title>
      </cc:Work>
    </rdf:RDF>
  </metadata>
  <g
     transform="translate(-2.7781543,-12.753797)"
     id="layer1"
     inkscape:groupmode="layer"
     inkscape:label="Layer 1">
    <text
       transform="matrix(0.26458333,0,0,0.26458333,2.7781543,12.753797)"
       y="40.166267"
       x="-1.3689935"
       xml:space="preserve"
       id="text1579-9"
       style="font-style:normal;font-weight:normal;font-size:56.074px;line-height:1.25;font-family:sans-serif;shape-inside:url(#rect1581);fill:#000000;fill-opacity:1;stroke:none;stroke-width:4.23868;stroke-miterlimit:4;stroke-dasharray:none" />
    <path
       style="fill:#777777;fill-opacity:1;stroke-width:0.425652"
       inkscape:connector-curvature="0"
       d="m 11.815093,13.079767 c 0.598468,0 1.081157,0.483966 1.109675,1.05349 v 9.162164 l -1.139469,-0.967507 -0.62571,-0.569522 -0.682747,-0.595063 0.285187,0.938562 H 4.7867223 c -0.5967631,0 -1.0811556,-0.453319 -1.0811556,-1.053914 v -6.912592 c 0,-0.569523 0.4852436,-1.05434 1.083284,-1.05434 h 7.0232623 z m -2.6041398,2.418981 h -0.01271 l -0.085989,0.08514 c 0.8823769,0.255391 1.3093048,0.654227 1.3093048,0.654227 -0.5686697,-0.284336 -1.0811562,-0.426504 -1.593641,-0.483967 -0.3703183,-0.05746 -0.7406349,-0.02723 -1.0534897,0 h -0.085136 c -0.2000564,0 -0.625708,0.08514 -1.1960826,0.312855 -0.1987789,0.0864 -0.3128549,0.143019 -0.3128549,0.143019 0,0 0.4265044,-0.426505 1.3663446,-0.654228 l -0.057465,-0.05746 c 0,0 -0.7116901,-0.02723 -1.4799926,0.540578 0,0 -0.7683024,1.338251 -0.7683024,2.988078 0,0 0.4256517,0.740635 1.5932157,0.768729 0,0 0.170262,-0.226872 0.3426507,-0.426504 C 6.5213017,19.170001 6.2659104,18.77159 6.2659104,18.77159 c 0,0 0.057031,0.02809 0.1426009,0.08514 h 0.025547 c 0.012709,0 0.018725,0.0064 0.025531,0.0127 v 0.0026 c 0.00676,0.0067 0.01271,0.01271 0.025547,0.01271 0.1404613,0.05789 0.2809305,0.11493 0.3958574,0.170262 0.1983542,0.08599 0.4533193,0.171538 0.7661741,0.228149 0.3958558,0.05746 0.8496013,0.08514 1.3663429,0 0.2553913,-0.05746 0.5107827,-0.113644 0.7661742,-0.227724 0.1660051,-0.08514 0.3703191,-0.170261 0.5946371,-0.313706 0,0 -0.255392,0.39841 -0.9385638,0.597616 0.1404613,0.198354 0.3383941,0.425653 0.3383941,0.425653 1.1679887,-0.02554 1.6217357,-0.766174 1.6472737,-0.734676 0,-1.647275 -0.772557,-2.988079 -0.772557,-2.988079 C 9.9529267,15.525567 9.3016794,15.505987 9.1867524,15.505987 l 0.023842,-0.0085 z m 0.07151,1.878404 c 0.2992334,0 0.5405772,0.255391 0.5405772,0.568246 0,0.314983 -0.2426211,0.570375 -0.5405772,0.570375 -0.2979576,0 -0.5405786,-0.255392 -0.5405786,-0.567821 8.511e-4,-0.314983 0.2438983,-0.569523 0.5405786,-0.569523 z m -1.9337396,0 c 0.2979576,0 0.5388765,0.255391 0.5388765,0.568246 0,0.314983 -0.2426225,0.570375 -0.5405785,0.570375 -0.2979562,0 -0.5405787,-0.255392 -0.5405787,-0.567821 0,-0.314983 0.2426225,-0.569523 0.5405787,-0.569523 z"
       id="path1896" />
  </g>
</svg>
