<?xml version="1.0" encoding="UTF-8" standalone="no"?>
<svg
   xmlns:dc="http://purl.org/dc/elements/1.1/"
   xmlns:cc="http://creativecommons.org/ns#"
   xmlns:rdf="http://www.w3.org/1999/02/22-rdf-syntax-ns#"
   xmlns:svg="http://www.w3.org/2000/svg"
   xmlns="http://www.w3.org/2000/svg"
   xmlns:sodipodi="http://sodipodi.sourceforge.net/DTD/sodipodi-0.dtd"
   xmlns:inkscape="http://www.inkscape.org/namespaces/inkscape"
   sodipodi:docname="github.svg"
   inkscape:version="1.0beta1 (32d4812, 2019-09-19)"
   id="svg8"
   version="1.1"
   viewBox="0 0 10.583333 10.583334"
   height="40"
   width="40">
  <defs
     id="defs2">
    <rect
       id="rect1581"
       height="17.43693"
       width="94.233612"
       y="35.013706"
       x="16.505098" />
    <rect
       id="rect870"
       height="13.528861"
       width="22.791864"
       y="35.955082"
       x="39.977177" />
    <rect
       id="rect835"
       height="30.238094"
       width="138.33929"
       y="56.69643"
       x="40.82143" />
  </defs>
  <sodipodi:namedview
     fit-margin-bottom="2"
     fit-margin-right="2"
     fit-margin-left="2"
     fit-margin-top="2"
     units="px"
     inkscape:window-maximized="0"
     inkscape:window-y="25"
     inkscape:window-x="0"
     inkscape:window-height="907"
     inkscape:window-width="1600"
     showgrid="false"
     inkscape:document-rotation="0"
     inkscape:current-layer="layer1"
     inkscape:document-units="mm"
     inkscape:cy="21.68034"
     inkscape:cx="17.437135"
     inkscape:zoom="15.483974"
     inkscape:pageshadow="2"
     inkscape:pageopacity="0.0"
     borderopacity="1.0"
     bordercolor="#666666"
     pagecolor="#ffffff"
     id="base" />
  <metadata
     id="metadata5">
    <rdf:RDF>
      <cc:Work
         rdf:about="">
        <dc:format>image/svg+xml</dc:format>
        <dc:type
           rdf:resource="http://purl.org/dc/dcmitype/StillImage" />
        <dc:title></dc:title>
      </cc:Work>
    </rdf:RDF>
  </metadata>
  <g
     transform="translate(-2.7781543,-12.753797)"
     id="layer1"
     inkscape:groupmode="layer"
     inkscape:label="Layer 1">
    <text
       transform="matrix(0.26458333,0,0,0.26458333,2.7781543,12.753797)"
       y="40.166267"
       x="-1.3689935"
       xml:space="preserve"
       id="text1579-9"
       style="font-style:normal;font-weight:normal;font-size:56.074px;line-height:1.25;font-family:sans-serif;shape-inside:url(#rect1581);fill:#000000;fill-opacity:1;stroke:none;stroke-width:4.23868;stroke-miterlimit:4;stroke-dasharray:none" />
    <g
       transform="matrix(0.41643776,0,0,0.41643776,2.6925033,12.677419)"
       id="g1658"
       style="fill:#777777;fill-opacity:1">
      <path
         style="fill:#777777;fill-opacity:1"
         inkscape:connector-curvature="0"
         clip-rule="evenodd"
         d="m 15.7481,24.9471 c 8.342,-0.241 9.163,-1.997 9.163,-11.966 0,-11.00002 -1,-12.000021 -12,-12.000021 -10.99997,0 -11.999967,1.000001 -11.999967,12.000021 0,9.995 0.825997,11.734 9.227967,11.968 0.073,-0.091 0.1,-0.205 0.1,-0.321 0,-0.25 -0.01,-2.816 -0.015,-3.699 -3.03697,0.639 -3.67797,-1.419 -3.67797,-1.419 -0.497,-1.222 -1.213,-1.548 -1.213,-1.548 -0.991,-0.656 0.075,-0.643 0.075,-0.643 1.096,0.075 1.673,1.091 1.673,1.091 0.974,1.617 2.556,1.15 3.17797,0.879 0.099,-0.683 0.381,-1.15 0.693,-1.414 -2.42497,-0.267 -4.97397,-1.175 -4.97397,-5.23 0,-1.155 0.426,-2.099 1.124,-2.83902 -0.113,-0.268 -0.487,-1.344 0.107,-2.8 0,0 0.917,-0.285 3.00297,1.084 0.871,-0.235 1.805,-0.352 2.734,-0.356 0.927,0.004 1.861,0.121 2.734,0.356 2.085,-1.369 3,-1.084 3,-1.084 0.596,1.456 0.221,2.532 0.108,2.8 0.7,0.74002 1.123,1.68402 1.123,2.83902 0,4.065 -2.553,4.96 -4.986,5.221 0.392,0.327 0.741,0.973 0.741,1.96 0,0.946 -0.006,2.619 -0.01,3.728 -0.002,0.549 -0.003,0.959 -0.003,1.074 0,0.109 0.029,0.224 0.095,0.319 z"
         fill="black"
         fill-rule="evenodd"
         id="path1647" />
    </g>
  </g>
</svg>
