<?xml version="1.0" encoding="UTF-8" standalone="no"?>
<svg
   xmlns:dc="http://purl.org/dc/elements/1.1/"
   xmlns:cc="http://creativecommons.org/ns#"
   xmlns:rdf="http://www.w3.org/1999/02/22-rdf-syntax-ns#"
   xmlns:svg="http://www.w3.org/2000/svg"
   xmlns="http://www.w3.org/2000/svg"
   xmlns:sodipodi="http://sodipodi.sourceforge.net/DTD/sodipodi-0.dtd"
   xmlns:inkscape="http://www.inkscape.org/namespaces/inkscape"
   sodipodi:docname="linkedin.svg"
   inkscape:version="1.0beta1 (32d4812, 2019-09-19)"
   id="svg8"
   version="1.1"
   viewBox="0 0 10.583333 10.583334"
   height="40"
   width="40">
  <defs
     id="defs2">
    <rect
       id="rect1581"
       height="17.43693"
       width="94.233612"
       y="35.013706"
       x="16.505098" />
    <rect
       id="rect870"
       height="13.528861"
       width="22.791864"
       y="35.955082"
       x="39.977177" />
    <rect
       id="rect835"
       height="30.238094"
       width="138.33929"
       y="56.69643"
       x="40.82143" />
  </defs>
  <sodipodi:namedview
     fit-margin-bottom="2"
     fit-margin-right="2"
     fit-margin-left="2"
     fit-margin-top="2"
     units="px"
     inkscape:window-maximized="0"
     inkscape:window-y="25"
     inkscape:window-x="0"
     inkscape:window-height="907"
     inkscape:window-width="1600"
     showgrid="false"
     inkscape:document-rotation="0"
     inkscape:current-layer="layer1"
     inkscape:document-units="mm"
     inkscape:cy="17.035503"
     inkscape:cx="13.13742"
     inkscape:zoom="6.3935703"
     inkscape:pageshadow="2"
     inkscape:pageopacity="0.0"
     borderopacity="1.0"
     bordercolor="#666666"
     pagecolor="#ffffff"
     id="base" />
  <metadata
     id="metadata5">
    <rdf:RDF>
      <cc:Work
         rdf:about="">
        <dc:format>image/svg+xml</dc:format>
        <dc:type
           rdf:resource="http://purl.org/dc/dcmitype/StillImage" />
        <dc:title></dc:title>
      </cc:Work>
    </rdf:RDF>
  </metadata>
  <g
     transform="translate(-2.7781543,-12.753797)"
     id="layer1"
     inkscape:groupmode="layer"
     inkscape:label="Layer 1">
    <text
       transform="matrix(0.26458333,0,0,0.26458333,2.7781543,12.753797)"
       y="40.166267"
       x="-1.3689935"
       xml:space="preserve"
       id="text1579-9"
       style="font-style:normal;font-weight:normal;font-size:56.074px;line-height:1.25;font-family:sans-serif;shape-inside:url(#rect1581);fill:#000000;fill-opacity:1;stroke:none;stroke-width:4.23868;stroke-miterlimit:4;stroke-dasharray:none" />
    <g
       transform="matrix(0.01908404,0,0,0.01908404,3.1971394,13.192803)"
       id="g1705"
       style="clip-rule:evenodd;fill-rule:evenodd;stroke-linejoin:round;stroke-miterlimit:2;fill:#777777;fill-opacity:1">
      <path
         style="fill:#777777;fill-opacity:1"
         inkscape:connector-curvature="0"
         d="M 449.446,0 C 483.971,0 512,28.03 512,62.554 V 449.446 C 512,483.97 483.97,512 449.446,512 H 62.554 C 28.03,512 0,483.97 0,449.446 V 62.554 C 0,28.03 28.029,0 62.554,0 Z M 160.461,423.278 V 197.561 h -75.04 v 225.717 z m 270.539,0 V 293.839 c 0,-69.333 -37.018,-101.586 -86.381,-101.586 -39.804,0 -57.634,21.891 -67.617,37.266 v -31.958 h -75.021 c 0.995,21.181 0,225.717 0,225.717 h 75.02 V 297.222 c 0,-6.748 0.486,-13.492 2.474,-18.315 5.414,-13.475 17.767,-27.434 38.494,-27.434 27.135,0 38.007,20.707 38.007,51.037 V 423.278 Z M 123.448,88.722 C 97.774,88.722 81,105.601 81,127.724 c 0,21.658 16.264,39.002 41.455,39.002 h 0.484 c 26.165,0 42.452,-17.344 42.452,-39.002 C 164.906,105.632 149.15,88.77 123.448,88.722 Z"
         id="path1694" />
    </g>
  </g>
</svg>
